<?xml version="1.0" encoding="UTF-8"?>
<svg width="300px" height="195px" viewBox="0 0 300 195" version="1.1" xmlns="http://www.w3.org/2000/svg" xmlns:xlink="http://www.w3.org/1999/xlink">
    <title>method-one copy</title>
    <g id="Page-1" stroke="none" stroke-width="1" fill="none" fill-rule="evenodd">
        <g id="Desktop-HD" transform="translate(-71.000000, -2876.000000)" fill="#000000">
            <g id="method-one-copy" transform="translate(71.000000, 2876.000000)">
                <g id="method-one" transform="translate(101.000000, 0.000000)" fill-rule="nonzero">
                    <g id="Group">
                        <rect id="Rectangle" x="44.68702" y="50.3104253" width="9.64288579" height="26.7989067"></rect>
                        <path d="M41.7175372,39.0346041 L32.0746316,39.0346041 C32.0746316,52.3893194 32.0746316,63.7651188 32.0746316,77.109332 L41.7175372,77.109332 C41.7175372,67.9018828 41.7175372,48.024158 41.7175372,39.0346041 Z" id="Path"></path>
                        <path d="M98.7033657,4.97474786 C98.7033657,2.50248751 96.6841182,0.485083505 94.2095987,0.485083505 L4.79040128,0.485083505 C2.31588176,0.485083505 0.296634252,2.50248751 0.296634252,4.97474786 L0.296634252,20.1662339 L98.7033657,20.1662339 L98.7033657,4.97474786 Z M11.7164032,15.2522506 C10.0933362,15.2522506 8.76535064,13.9254577 8.76535064,12.3038922 C8.76535064,10.6824454 10.093356,9.35565254 11.7164032,9.35565254 C13.339589,9.35565254 14.667337,10.6824454 14.667337,12.3038922 C14.667337,13.9254577 13.3395692,15.2522506 11.7164032,15.2522506 Z M19.9891179,15.2522506 C18.3660508,15.2522506 17.0380653,13.9254577 17.0380653,12.3038922 C17.0380653,10.6824454 18.3660706,9.35565254 19.9891179,9.35565254 C21.6121651,9.35565254 22.9400517,10.6824454 22.9400517,12.3038922 C22.9400517,13.9254577 21.6121849,15.2522506 19.9891179,15.2522506 Z M28.261595,15.2522506 C26.6090514,15.2522506 25.3106612,13.9254577 25.3106612,12.3038922 C25.3106612,10.6824454 26.6090514,9.35565254 28.261595,9.35565254 C29.884662,9.35565254 31.2126475,10.6824454 31.2126475,12.3038922 C31.2126475,13.9254577 29.884662,15.2522506 28.261595,15.2522506 Z M89.3578182,14.2820565 L38.0289392,14.2820565 C36.9347463,14.2820565 36.0493236,13.3964929 36.0493236,12.3042482 C36.0493236,11.2120036 36.9347463,10.32644 38.0289392,10.32644 L89.3578182,10.32644 C90.4520112,10.32644 91.3374338,11.2120036 91.3374338,12.3042482 C91.3374338,13.3964929 90.4520309,14.2820565 89.3578182,14.2820565 Z" id="Shape"></path>
                        <rect id="Rectangle" x="19.4641634" y="60.0208113" width="9.64100516" height="17.0885404"></rect>
                        <path d="M66.9402353,33.5908054 L57.2992698,33.5908054 C57.2992698,48.6157996 57.2992698,62.0350904 57.2992698,77.1093517 L66.9402353,77.1093517 C66.9402353,65.9075401 66.9402353,44.4379961 66.9402353,33.5908054 Z" id="Path"></path>
                        <path d="M0.296634252,24.1218505 L0.296634252,86.0252917 C0.296634252,88.497552 2.31588176,90.5149561 4.79040128,90.5149561 L94.2095987,90.5149561 C96.6841182,90.5149561 98.7033657,88.497552 98.7033657,86.0252917 L98.7033657,24.1218505 L0.296634252,24.1218505 Z M82.521968,78.5926882 C82.521968,79.4116195 81.8569359,80.0760444 81.0372563,80.0760444 C62.0227712,80.0760444 36.9748335,80.0760444 17.9794913,80.0760444 C17.1598512,80.0760444 16.4947796,79.4116195 16.4947796,78.5926882 L16.4947796,58.5374551 C16.4947796,57.7185238 17.1598512,57.0540989 17.9794913,57.0540989 L29.1052082,57.0540989 L29.1052082,37.5512478 C29.1052082,36.7323166 29.7702402,36.0678916 30.5899199,36.0678916 L43.2022291,36.0678916 C44.0219087,36.0678916 44.6869408,36.7323166 44.6869408,37.5512478 L44.6869408,47.3437129 L54.3298266,47.3437129 L54.3298266,32.1074492 C54.3298266,31.2885179 54.9948586,30.624093 55.8145383,30.624093 L68.4249273,30.624093 C69.2446069,30.624093 69.909639,31.2885179 69.909639,32.1074492 L69.909639,56.0101523 L81.0372563,56.0101523 C81.8569359,56.0101523 82.521968,56.6745772 82.521968,57.4935085 L82.521968,78.5926882 Z" id="Shape"></path>
                        <rect id="Rectangle" x="69.9097181" y="58.976845" width="9.64288579" height="18.132487"></rect>
                    </g>
                </g>
                <text id="Descriptive-Statisti" font-family="AvenirNext-Bold, Avenir Next" font-size="25" font-weight="bold" letter-spacing="-0.141368333">
                    <tspan x="26" y="136">Descriptive Statistics</tspan>
                </text>
                <text id="Used-for-preliminary" font-family="AvenirNext-Medium, Avenir Next" font-size="18" font-weight="400" letter-spacing="-0.1017852">
                    <tspan x="46.512315" y="163">Used for preliminary data </tspan>
                    <tspan x="101.119711" y="188">exploration.</tspan>
                </text>
            </g>
        </g>
    </g>
</svg>