<?xml version="1.0" encoding="UTF-8"?>
<svg width="300px" height="345px" viewBox="0 0 300 345" version="1.1" xmlns="http://www.w3.org/2000/svg" xmlns:xlink="http://www.w3.org/1999/xlink">
    <title>method-two</title>
    <g id="Page-1" stroke="none" stroke-width="1" fill="none" fill-rule="evenodd">
        <g id="Desktop-HD" transform="translate(-553.000000, -2728.000000)" fill="#000000">
            <g id="method-two" transform="translate(553.000000, 2728.000000)">
                <g transform="translate(105.000000, 0.000000)" fill-rule="nonzero" id="Group">
                    <g>
                        <path d="M46.6502213,40.9555459 C46.6762409,40.9555459 46.6977957,40.9692406 46.7235957,40.9703529 C48.5754868,40.9298341 50.0712464,39.4227418 50.0712464,37.5675924 C50.0712464,35.6870776 48.5362928,34.1573735 46.6493247,34.1573735 C44.7623566,34.1573735 43.227403,35.6870776 43.227403,37.5675924 C43.227403,39.4231794 44.7238213,40.9306182 46.5762796,40.9704624 C46.6022991,40.96935 46.6239638,40.9555459 46.6502213,40.9555459 Z" id="Path"></path>
                        <ellipse id="Oval" cx="57.5677383" cy="22.5631" rx="3.41610298" ry="3.40442"></ellipse>
                        <ellipse id="Oval" cx="35.7335826" cy="19.3839406" rx="3.41610298" ry="3.40442"></ellipse>
                        <ellipse id="Oval" cx="24.209857" cy="33.0274782" rx="3.41610298" ry="3.40442"></ellipse>
                        <path d="M69.0829736,33.0087688 C67.2067281,33.0087688 65.6798255,34.5384729 65.6798255,36.4189876 C65.6798255,38.2888165 67.2067281,39.8104971 69.0829736,39.8104971 C70.9690451,39.8104971 72.5039987,38.2888165 72.5039987,36.4189876 C72.5039987,34.5384729 70.9690451,33.0087688 69.0829736,33.0087688 Z" id="Path"></path>
                        <path d="M46.2835685,0.0577017647 C30.7670094,0.0577017647 17.11676,9.61297765 10.7125047,24.8576653 C10.4363166,25.1329088 8.30957319,31.8580671 8.24232851,32.0423712 C7.43387362,34.5742141 8.84194979,36.2563835 9.15722213,37.2212494 C9.74579149,38.5705335 8.70905234,38.6079341 0.703605106,50.8794665 C-0.709045532,53.1391841 0.251519574,56.2348624 2.64317957,57.0976471 C3.0944783,57.2690406 3.67779617,57.3530871 5.55248638,57.6629412 C9.50052681,58.7748018 4.20214,64.7427941 7.01629787,67.82 C8.3154834,69.2606612 8.3154834,69.2606612 7.93119149,71.1570953 C5.6133634,82.70775 15.4110506,84.3572053 27.3636417,81.5512312 L29.4130034,89.5746876 C29.6142617,90.3770406 30.3461034,90.9423347 31.1878421,90.9423347 L66.8320426,90.9423347 C66.8503587,90.9423347 66.8686749,90.9423347 66.8686749,90.9423347 C67.8750396,90.9423347 68.6984621,90.1218376 68.6984621,89.1188053 C68.6984621,88.8817465 68.6618298,88.6629229 68.5703587,88.4623529 C68.1678604,85.8547241 67.4358906,75.36943 77.3167966,57.6082718 C94.1527604,34.1718524 77.198757,0.0577017647 46.2835685,0.0577017647 Z M70.9217085,43.1864335 L70.9217085,53.3649918 C70.9217085,54.0051782 70.5848813,54.5990835 70.0336213,54.9285224 L48.4800085,67.8166629 L48.4800085,79.4980829 C48.4800085,80.5051271 47.6607213,81.3216124 46.6502213,81.3216124 C45.6397213,81.3216124 44.820434,80.5051271 44.820434,79.4980829 L44.820434,73.0063182 L22.9326655,51.7622735 C22.5788579,51.4194682 22.3796123,50.9484506 22.3796123,50.4560612 L22.3796123,39.8092753 C19.3680204,38.9997924 17.1341613,36.2813112 17.1341613,33.02746 C17.1341613,29.1391118 20.3077077,25.9755253 24.2093996,25.9755253 C28.1110915,25.9755253 31.2855345,29.1390935 31.2855345,33.02746 C31.2855345,36.2812929 29.0510166,38.9999018 26.0391868,39.8093847 L26.0391868,49.6867688 L44.8204157,67.9156076 L44.8204157,59.2567424 L34.4599591,49.2469153 C34.1052549,48.90411 33.9042345,48.4313053 33.9042345,47.9380406 L33.9042345,26.1658653 C30.8924047,25.3563824 28.6578868,22.6377918 28.6578868,19.3839406 C28.6578868,15.4955924 31.8323115,12.3320059 35.7340217,12.3320059 C39.6357319,12.3320059 42.80926,15.4955741 42.80926,19.3839406 C42.80926,22.6377735 40.5754009,25.3562729 37.5638089,26.1657559 L37.5638089,47.1660676 L44.8204157,54.1770459 L44.8204157,44.3561 C41.8053472,43.5465076 39.5678102,40.8244524 39.5678102,37.5676106 C39.5678102,33.6765818 42.7449247,30.5103329 46.6493064,30.5103329 C50.5536881,30.5103329 53.7308026,33.6765818 53.7308026,37.5676106 C53.7308026,40.8237776 51.4941621,43.5452859 48.4799902,44.3555347 L48.4799902,51.6027876 L55.7374936,46.7360065 L55.7374936,29.3461371 C52.7259017,28.5364353 50.4920426,25.8173888 50.4920426,22.5635559 C50.4901945,18.6700471 53.6550677,15.5125147 57.5672809,15.5125147 C61.4689728,15.5125147 64.6434157,18.6752076 64.6434157,22.5635559 C64.6434157,25.8173888 62.4088979,28.5366541 59.3970681,29.3462465 L59.3970681,47.7065253 C59.3970681,48.3137788 59.0941834,48.8809512 58.5885034,49.2193071 L48.4800085,55.9978765 L48.4800085,63.5633353 L67.262134,52.3321082 L67.262134,43.1905365 C64.252994,42.3842812 62.0202511,39.6688088 62.0202511,36.4189694 C62.0202511,32.5279406 65.1884362,29.3616918 69.0829736,29.3616918 C72.9873553,29.3616918 76.1635732,32.5279406 76.1635732,36.4189694 C76.1635732,39.6640312 73.931617,42.3756194 70.9217085,43.1864335 Z" id="Shape"></path>
                    </g>
                </g>
                <text id="Machine-learning" font-family="AvenirNext-Bold, Avenir Next" font-size="25" font-weight="bold" letter-spacing="-0.141368333">
                    <tspan x="42.1934467" y="136">Machine learning</tspan>
                </text>
                <text id="Multiple-Linear-Regr" font-family="AvenirNext-Bold, Avenir Next" font-size="18" font-weight="bold" letter-spacing="-0.1017852">
                    <tspan x="29.8079928" y="163">Multiple Linear Regression</tspan>
                    <tspan x="260.135578" y="163" font-family="AvenirNext-Medium, Avenir Next" font-weight="400"> - </tspan>
                    <tspan x="7.9854558" y="188" font-family="AvenirNext-Medium, Avenir Next" font-weight="400">Predict season outcomes (adjusted </tspan>
                    <tspan x="12.695241" y="213" font-family="AvenirNext-Medium, Avenir Next" font-weight="400">wins a team won (wins + (ties / 2)) </tspan>
                    <tspan x="20.468778" y="238" font-family="AvenirNext-Medium, Avenir Next" font-weight="400">above the mean adjusted wins).</tspan>
                    <tspan x="150" y="263" font-family="AvenirNext-Medium, Avenir Next" font-weight="400"></tspan>
                    <tspan x="38.4812076" y="288">Logistic Regression</tspan>
                    <tspan x="204.919289" y="288" font-family="AvenirNext-Medium, Avenir Next" font-weight="400"> - Used </tspan>
                    <tspan x="26.4779928" y="313" font-family="AvenirNext-Medium, Avenir Next" font-weight="400">predicted season outcomes to </tspan>
                    <tspan x="45.702315" y="338" font-family="AvenirNext-Medium, Avenir Next" font-weight="400">predict playoff outcomes.</tspan>
                </text>
            </g>
        </g>
    </g>
</svg>