<?xml version="1.0" encoding="UTF-8"?>
<svg width="300px" height="245px" viewBox="0 0 300 245" version="1.1" xmlns="http://www.w3.org/2000/svg" xmlns:xlink="http://www.w3.org/1999/xlink">
    <title>method-three</title>
    <g id="Page-1" stroke="none" stroke-width="1" fill="none" fill-rule="evenodd">
        <g id="Desktop-HD" transform="translate(-1075.000000, -2728.000000)" fill="#000000">
            <g id="method-three" transform="translate(1075.000000, 2728.000000)">
                <g transform="translate(107.000000, 0.000000)" fill-rule="nonzero" id="Group">
                    <g>
                        <g transform="translate(0.000000, 8.921569)" id="Path">
                            <path d="M65.5121186,77.1805973 L65.5121186,79.2284006 C65.5121186,80.3061261 64.6362949,81.1862924 63.5459896,81.1862924 L23.4540104,81.1862924 C22.3816022,81.1862924 21.505672,80.3061261 21.505672,79.2284006 L21.505672,77.1805973 C21.505672,76.1567045 21.7380508,75.1867337 22.2206878,74.2885994 L23.0965114,72.8694455 L23.1144086,72.8156127 L25.5096073,68.9895088 L61.5083253,68.9895088 L63.8856269,72.8156127 L63.9035241,72.8694455 L64.7793478,74.2885994 C65.2619669,75.1867337 65.5121186,76.1567045 65.5121186,77.1805973 Z"></path>
                            <path d="M80.4372171,0.443116471 L80.0975976,0.443116471 L80.0975976,41.2907504 C80.0975976,43.1588555 79.275341,44.8293835 77.9705541,45.9790347 L77.9705541,56.4154857 L9.02944592,56.4154857 L9.02944592,45.9790347 C7.70676184,44.8473694 6.88450531,43.1588376 6.88450531,41.2907504 L6.88450531,0.443116471 L6.56278286,0.443116471 C2.9879351,0.443116471 0.0923087755,3.42491882 0.0923087755,7.07132451 L0.0923087755,58.7686208 C0.0923087755,62.4151514 2.9879351,65.3969359 6.56278286,65.3969359 L80.4372171,65.3969359 C84.0120649,65.3969359 86.9076912,62.4151335 86.9076912,58.7686208 L86.9076912,7.07132451 C86.9076912,3.42491882 84.0120649,0.443116471 80.4372171,0.443116471 Z"></path>
                        </g>
                        <g transform="translate(9.877551, 0.000000)">
                            <rect id="Rectangle" x="54.6102224" y="29.1100257" width="5.15805245" height="17.8901004"></rect>
                            <rect id="Rectangle" x="38.9301592" y="35.825112" width="5.15805245" height="11.1750676"></rect>
                            <path d="M24.0354751,21.39865 L24.0354751,30.3441463 L32.935948,30.3441463 C32.3337482,25.6964194 28.6611408,22.0038535 24.0354751,21.39865 Z" id="Path"></path>
                            <path d="M51.929131,47.0001796 C51.929131,39.2118108 51.929131,28.9897986 51.929131,21.3118253 L46.7693386,21.3118253 C46.7693386,30.3220208 46.7693386,37.9970678 46.7693386,47.0001796 L51.929131,47.0001796 Z" id="Path"></path>
                            <path d="M0.57723898,50.2147278 C0.57723898,51.6522959 1.74151204,52.8214496 3.17109959,52.8214496 L64.0588486,52.8214496 C65.4884361,52.8214496 66.6527092,51.652278 66.6527092,50.2147278 L66.6527092,15.4931782 L0.57723898,15.4931782 L0.57723898,50.2147278 Z M36.248979,34.4778837 C36.248979,33.7341104 36.8494388,33.1306733 37.5895602,33.1306733 L44.0881939,33.1306733 L44.0881939,19.9645971 C44.0881939,19.2208237 44.6886537,18.6173867 45.4287573,18.6173867 L53.2696945,18.6173867 C54.0097982,18.6173867 54.6102757,19.2208237 54.6102757,19.9645971 L54.6102757,26.4156227 L61.1088916,26.4156227 C61.8489953,26.4156227 62.4494729,27.0190598 62.4494729,27.7628331 L62.4494729,48.3473722 C62.4494729,49.0911455 61.8490131,49.6945825 61.1088916,49.6945825 C52.0860329,49.6945825 46.0482506,49.6945825 37.5895602,49.6945825 C36.8494565,49.6945825 36.248979,49.0911455 36.248979,48.3473722 L36.248979,34.4778837 L36.248979,34.4778837 Z M21.3543304,19.9645971 C21.3543304,19.2208237 21.9547902,18.6173867 22.6949116,18.6173867 C29.9926847,18.6173867 35.739301,24.6596082 35.739301,31.6913567 C35.739301,32.43513 35.1405812,33.0385671 34.3987198,33.0385671 C34.3899843,33.0385671 34.3760288,33.0394414 34.3638133,33.0385671 L22.6949116,33.0385671 C21.954808,33.0385671 21.3543304,32.43513 21.3543304,31.6913567 L21.3543304,19.9645971 Z M17.7847204,23.5510498 C18.5248241,23.5510498 19.1253016,24.1544869 19.1253016,24.8982602 L19.1253016,35.2778094 L29.453622,35.2778094 C30.1937257,35.2778094 30.7942033,35.8812465 30.7942033,36.6250198 C30.7942033,43.8338614 24.9588824,49.6990076 17.7847204,49.6990076 C10.6105584,49.6990076 4.77525531,43.8338792 4.77525531,36.6250198 C4.77525531,29.4161604 10.6105761,23.5510498 17.7847204,23.5510498 Z" id="Shape"></path>
                            <path d="M17.7847204,47.004569 C23.0248192,47.004569 27.3676994,43.0611465 28.0257745,37.972248 L17.7847204,37.972248 C17.0446167,37.972248 16.4441569,37.368811 16.4441569,36.6250198 L16.4441569,26.3323131 C11.3803663,26.9953998 7.4564,31.3580647 7.4564,36.6250198 C7.4564,42.3480633 12.0890435,47.004569 17.7847204,47.004569 Z" id="Path"></path>
                            <path d="M64.0588486,0.892174706 L3.17109959,0.892174706 C1.74151204,0.892174706 0.57723898,2.06134627 0.57723898,3.49889647 L0.57723898,11.9005875 L66.6527269,11.9005875 L66.6527269,3.49889647 C66.6527269,2.06134627 65.4884361,0.892174706 64.0588486,0.892174706 Z M5.74337,8.58736667 C4.54626776,8.58736667 3.5667898,7.60305 3.5667898,6.39999431 C3.5667898,5.19683157 4.54625,4.2125149 5.74337,4.2125149 C6.94070306,4.2125149 7.92005673,5.19683157 7.92005673,6.39999431 C7.92005673,7.60305 6.94068531,8.58736667 5.74337,8.58736667 Z M11.8453192,8.58736667 C10.6482169,8.58736667 9.66863245,7.60305 9.66863245,6.39999431 C9.66863245,5.19683157 10.6481992,4.2125149 11.8453192,4.2125149 C13.0424392,4.2125149 14.0220059,5.19683157 14.0220059,6.39999431 C14.0220059,7.60305 13.0424214,8.58736667 11.8453192,8.58736667 Z M17.9471618,8.58736667 C16.7282386,8.58736667 15.7704751,7.60305 15.7704751,6.39999431 C15.7704751,5.19683157 16.7282208,4.2125149 17.9471618,4.2125149 C19.1442641,4.2125149 20.1238486,5.19683157 20.1238486,6.39999431 C20.1238486,7.60305 19.1442641,8.58736667 17.9471618,8.58736667 Z M63.0115284,8.19310471 L25.1526261,8.19310471 C24.1646612,8.19310471 23.3652022,7.38880745 23.3652022,6.39681824 C23.3652022,5.40482902 24.1646612,4.60053176 25.1526261,4.60053176 L63.0115284,4.60053176 C63.999511,4.60053176 64.7989522,5.40482902 64.7989522,6.39681824 C64.7989522,7.38880745 63.999511,8.19310471 63.0115284,8.19310471 Z" id="Shape"></path>
                        </g>
                    </g>
                </g>
                <text id="Inferential-Statisti" font-family="AvenirNext-Bold, Avenir Next" font-size="25" font-weight="bold" letter-spacing="-0.141368333">
                    <tspan x="32" y="136">Inferential Statistics</tspan>
                </text>
                <text id="Used-to-make-quantit" font-family="AvenirNext-Medium, Avenir Next" font-size="18" font-weight="400" letter-spacing="-0.1017852">
                    <tspan x="43.119315" y="163">Used to make quantitative </tspan>
                    <tspan x="25.1162076" y="188">recommendations (confidence </tspan>
                    <tspan x="7.9103484" y="213">intervals and means) regarding the </tspan>
                    <tspan x="75.0879594" y="238">predictor features.</tspan>
                </text>
            </g>
        </g>
    </g>
</svg>