<?xml version="1.0" encoding="UTF-8"?>
<svg width="300px" height="195px" viewBox="0 0 300 195" version="1.1" xmlns="http://www.w3.org/2000/svg" xmlns:xlink="http://www.w3.org/1999/xlink">
    <title>method-four</title>
    <g id="Page-1" stroke="none" stroke-width="1" fill="none" fill-rule="evenodd">
        <g id="Desktop-HD" transform="translate(-429.000000, -3186.000000)" fill="#000000">
            <g id="method-four" transform="translate(429.000000, 3186.000000)">
                <text id="K-modes-Clustering" font-family="AvenirNext-Bold, Avenir Next" font-size="25" font-weight="bold" letter-spacing="-0.141368333">
                    <tspan x="32" y="136">K-modes Clustering</tspan>
                </text>
                <text id="Used-to-cluster-alik" font-family="AvenirNext-Medium, Avenir Next" font-size="18" font-weight="400" letter-spacing="-0.1017852">
                    <tspan x="20.9426706" y="163">Used to cluster alike companies </tspan>
                    <tspan x="24.3145632" y="188">bases the three financial ratios.</tspan>
                </text>
                <g id="noun_lateral-thinking_3239825" transform="translate(111.000000, 0.000000)" fill-rule="nonzero">
                    <g id="Group">
                        <path d="M32.4646505,21.7460202 C32.3212514,20.2204676 31.5885337,18.8439053 30.3993672,17.8689741 C29.3676388,17.0046882 28.0700814,16.5316131 26.7375516,16.5316131 C21.3467279,16.5316131 18.9599607,23.2870427 23.0704714,26.6816461 C26.9956091,29.9169102 32.9376812,26.820198 32.4646505,21.7460202 Z" id="Path"></path>
                        <path d="M33.2026149,31.9021555 L31.333216,28.2211341 C29.0366463,29.6715671 29.3670837,29.2262559 28.8220491,29.4914049 L30.6844463,33.1680725 C31.3248177,32.6995653 32.2942656,32.1828459 33.2026149,31.9021555 Z" id="Path"></path>
                        <path d="M20.8426107,56.555822 C19.863314,57.7180704 19.4016542,59.1913425 19.5380516,60.7099363 C19.9960405,65.8673702 26.4609605,67.7346902 29.6876723,63.8594998 C31.5168342,61.6718063 31.4451526,58.4490502 29.5215493,56.3597973 C27.4666879,53.9647486 23.2384747,53.660202 20.8426107,56.555822 Z" id="Path"></path>
                        <path d="M30.584776,46.9485951 L27.4353149,53.0020222 C28.177756,53.2236161 29.2425765,53.7588745 29.9307416,54.2975588 L33.0854137,48.2206145 C32.204856,47.9449202 31.1199081,47.3515824 30.584776,46.9485951 Z" id="Path"></path>
                        <path d="M42.4673802,34.7075606 L46.0837479,30.6911061 C45.2918298,30.2055051 44.5461474,29.549181 44.0027602,28.8283718 L40.3898844,32.8387239 C41.1210621,33.2869257 41.8351207,33.8965186 42.4673802,34.7075606 Z" id="Path"></path>
                        <path d="M54.419947,27.9214229 C59.325814,21.977642 50.3213981,14.8530735 45.5731305,20.6020788 C40.7701033,26.2991784 49.4412523,33.8529814 54.419947,27.9214229 Z" id="Path"></path>
                        <path d="M15.8903288,12.166129 C12.6849084,15.342261 10.9300605,19.6067886 10.9300605,24.1923857 C10.6321242,27.8643606 12.5963763,29.0345671 3.12265442,40.8222075 C-1.51824302,46.5943196 0.216495349,51.1774186 5.05653628,53.2767886 C4.2552886,55.8572096 3.8258614,57.862921 5.09238605,60.5924214 C6.66533488,63.8265971 6.34641163,63.3144098 6.61451488,63.6257725 C4.1469514,69.578029 7.71926791,73.6779002 11.7716167,74.3316549 C20.653513,75.7233661 23.4111516,76.9189276 24.2169835,77.400621 L24.2169835,88.3028671 C24.2169835,88.8381433 24.4497742,89.3376976 24.8616167,89.6767173 C25.1840319,89.9444 25.5958565,90.0871808 26.0076812,90.0871808 C26.115123,90.0871808 26.2225649,90.0871808 26.3299888,90.0693198 L58.0253556,84.3059151 C61.6255533,83.6956084 57.1779795,72.6228176 63.2004898,67.4798545 C100.083723,37.8695429 53.0115633,-24.5683763 15.8903288,12.166129 Z M53.1691626,44.8696912 L43.3852381,43.9791759 C42.9945437,44.7648984 42.5827549,45.4274676 41.9512833,46.0419675 L45.4178053,53.7630676 C55.4610944,53.9809145 54.9457137,68.749822 45.2478502,68.749822 C39.0277544,68.749822 35.2809344,61.4366516 39.5608809,56.3345492 L36.0970807,48.6356637 C35.4967672,48.655202 35.8871214,48.6689233 34.9249974,48.5631314 L31.2354081,55.6686969 C36.6734526,62.6852608 27.3195284,71.6307749 20.443894,65.9923257 C18.887527,64.6985198 17.932727,62.8793584 17.7543556,60.8676518 C17.3465958,56.3085875 21.0924847,52.5077494 25.5708405,52.7063614 L29.2610923,45.6147314 C26.293566,42.0617524 26.63199,37.2409292 29.3033886,34.4026571 L26.9592221,29.7716492 C20.487014,29.9641588 16.8292095,22.4369243 20.9300505,17.4690916 C25.3302244,12.2209075 33.6402256,15.091208 34.2466095,21.5796329 C34.4266105,23.5010533 33.8533723,25.3683555 32.659747,26.881168 L35.0391186,31.5653127 C36.2702233,31.4571655 37.5134509,31.6220539 38.6924284,32.0508067 L43.0767009,27.1848939 C41.9543453,24.6237614 42.3516295,21.648329 44.1968719,19.4607425 C46.8443109,16.2539918 51.6064565,15.8347673 54.8011686,18.4744988 C61.0271021,23.6176582 55.7781733,33.7862302 47.826043,31.4283131 L43.440893,36.2986867 C43.6548993,36.7327924 43.8306384,37.1781035 43.966606,37.631801 L53.7412367,38.5054367 C56.2129905,33.8348171 62.2988019,32.7798059 66.241363,36.0309861 C69.7160865,38.9322445 70.2022251,44.1205114 67.3290686,47.5985314 C63.1859493,52.5539275 55.1742247,51.0624553 53.1691626,44.8696912 Z" id="Shape"></path>
                        <path d="M60.9986658,35.9342763 C55.0084777,35.9342763 52.234096,43.4573712 56.8594323,47.2918435 C59.5894584,49.5430586 63.6497758,49.2098916 65.951073,46.4598002 C69.3759435,42.3128053 66.4542053,35.9342763 60.9986658,35.9342763 Z" id="Path"></path>
                        <path d="M53.029703,40.2330092 L44.3297774,39.4558514 C44.3902672,40.2673394 44.300213,41.3608739 44.067476,42.2490696 L52.7744033,43.0419116 C52.6381491,41.4491618 53.0132644,40.411512 53.029703,40.2330092 Z" id="Path"></path>
                        <path d="M42.5493584,39.6731273 C42.3366951,36.0240094 39.2995465,33.294402 35.7732509,33.294402 C27.2023093,33.294402 26.8453695,45.4451502 34.5543947,46.7403478 C39.0013058,47.5848992 42.7987309,43.9608153 42.5493584,39.6731273 Z" id="Path"></path>
                        <path d="M41.6035119,65.6516467 C44.0176947,67.6590353 47.6480835,67.3353429 49.712364,64.8892986 C52.77888,61.1747678 50.1616858,55.5103212 45.2758388,55.5103212 C39.8934851,55.5103212 37.46281,62.2310637 41.6035119,65.6516467 Z" id="Path"></path>
                        <path d="M37.9416784,48.3739406 L40.9564791,55.0738245 C43.3371937,53.7407994 42.9931112,54.15956 43.5323619,53.9298831 L40.5158063,47.2143151 C39.1939312,48.0983176 38.120784,48.2935037 37.9416784,48.3739406 Z" id="Path"></path>
                    </g>
                </g>
            </g>
        </g>
    </g>
</svg>