<?xml version="1.0" encoding="UTF-8"?>
<svg width="300px" height="194px" viewBox="0 0 300 194" version="1.1" xmlns="http://www.w3.org/2000/svg" xmlns:xlink="http://www.w3.org/1999/xlink">
    <title>method-five</title>
    <g id="Page-1" stroke="none" stroke-width="1" fill="none" fill-rule="evenodd">
        <g id="Desktop-HD" transform="translate(-816.000000, -3187.000000)" fill="#000000">
            <g id="method-five" transform="translate(816.000000, 3187.000000)">
                <text id="PCA" font-family="AvenirNext-Bold, Avenir Next" font-size="25" font-weight="bold" letter-spacing="-0.241368">
                    <tspan x="125" y="135">PCA</tspan>
                </text>
                <text id="To-visualize-the-clu" font-family="AvenirNext-Medium, Avenir Next" font-size="18" font-weight="400" letter-spacing="-0.1017852">
                    <tspan x="11.9780262" y="162">To visualize the clusters via scatter </tspan>
                    <tspan x="131.417463" y="187">plot.</tspan>
                </text>
                <g id="noun_global-network_3239868" transform="translate(101.000000, 0.000000)" fill-rule="nonzero">
                    <g id="Group">
                        <g transform="translate(0.000000, 46.468085)" id="Path">
                            <path d="M58.1416518,33.3886483 C58.1416518,38.1341821 54.2577459,42.0080715 49.4999418,42.0080715 C44.7422541,42.0080715 40.8583482,38.1341821 40.8583482,33.3886483 C40.8583482,29.2823411 43.7323959,25.8733068 47.5579888,25.0017785 L47.5579888,0.325018085 L51.4418947,0.325018085 L51.4418947,25.0017785 C55.2676041,25.8733068 58.1416518,29.2823411 58.1416518,33.3886483 Z"></path>
                            <path d="M98.0294118,32.8076036 C98.0294118,37.8823832 93.8930365,42.0080909 88.8051353,42.0080909 C83.7172341,42.0080909 79.5808588,37.8823832 79.5808588,32.8076036 C79.5808588,28.3914317 82.7073759,24.7111981 86.8631824,23.8395343 L86.8631824,19.4039813 C86.8631824,15.8205755 85.4649141,12.4309223 82.9015324,9.89353255 L78.8040388,5.80660638 C77.2310647,4.23768894 75.9494224,2.35890681 75.1142894,0.325018085 L79.4643494,0.325018085 C80.0274847,1.31287149 80.7459918,2.24269787 81.5615771,3.05617979 L85.6591871,7.14310596 C88.9409788,10.4165502 90.7470882,14.7746757 90.7470882,19.4039813 L90.7470882,23.8395343 C94.9027782,24.7111787 98.0294118,28.3914317 98.0294118,32.8076036 Z"></path>
                            <path d="M12.1368176,19.4039813 L12.1368176,23.8201532 C16.2926241,24.6917977 19.3996906,28.3914317 19.3996906,32.8076036 C19.3996906,37.8823832 15.2827659,42.0080909 10.1948647,42.0080909 C7.72865824,42.0080909 5.41774588,41.0396185 3.66993,39.3157106 C1.94156471,37.5725185 0.970588235,35.2675466 0.970588235,32.8076036 C0.970588235,28.3914317 4.09722176,24.6917977 8.25291176,23.8201532 L8.25291176,19.4039813 C8.25291176,14.7940568 10.0589047,10.4359313 13.3214982,7.16248702 L17.4384229,3.05617979 C18.2540082,2.24269787 18.9725153,1.31289085 19.5356506,0.325018085 L23.8662794,0.325018085 C23.0312629,2.35890681 21.7689353,4.23768894 20.1959612,5.80660638 L16.0790365,9.89353255 C13.5350859,12.430903 12.1368176,15.8205755 12.1368176,19.4039813 Z"></path>
                            <path d="M38.2560847,21.205336 C38.2560847,25.9508698 34.3721788,29.8247591 29.6143747,29.8247591 C24.8565706,29.8247591 20.9726647,25.9508698 20.9726647,21.205336 C20.9726647,16.9828198 24.0409853,13.4575572 28.0414006,12.7409032 C28.5852018,9.81610511 29.8473935,7.06567851 31.7117188,4.68316298 C32.7215771,3.36604447 33.5177118,1.89395489 34.0808471,0.325037447 L38.1201441,0.325037447 C37.4792647,2.78499979 36.3335824,5.07057128 34.7800394,7.04629745 C33.4206529,8.80887064 32.4691076,10.8039779 31.9641882,12.9151779 C35.5956247,13.9417934 38.2560847,17.2732647 38.2560847,21.205336 Z"></path>
                            <path d="M78.0272188,21.1859355 C78.0272188,25.9508504 74.1433129,29.8247398 69.3856253,29.8247398 C64.6278212,29.8247398 60.7439153,25.9508504 60.7439153,21.1859355 C60.7439153,17.2539998 63.4043753,13.922393 67.0358118,12.9151585 C66.5308924,10.8039585 65.5793471,8.80885128 64.2199606,7.04627809 C62.6664371,5.07055191 61.5206188,2.78498043 60.8798559,0.325018085 L64.9190365,0.325018085 C65.4822882,1.89393553 66.2784229,3.36602511 67.2882812,4.68314362 C69.1525871,7.06565915 70.4147982,9.81608574 70.9585994,12.7408838 C74.9590147,13.4575572 78.0272188,16.9634194 78.0272188,21.1859355 Z"></path>
                        </g>
                        <path d="M38.0969082,1.79819191 C34.4241053,5.50551255 31.3132341,10.9645057 29.0393982,17.666617 C25.4774171,16.3142796 22.0402341,14.6192206 18.7842988,12.5620398 C24.1786535,7.45399681 30.7475947,3.73639511 38.0969082,1.79819191 Z M47.5555041,0.525411702 L47.5555041,21.3465989 C42.5027965,21.17943 37.5491859,20.3784751 32.7912653,18.9418562 C36.2268953,8.83036213 41.5645288,1.79309979 47.5555041,0.525411702 Z M51.43941,0.523862766 C57.4339376,1.78587787 62.7753759,8.82337255 66.2130053,18.9386615 C61.4521147,20.3771779 56.4955341,21.1793138 51.43941,21.3465989 L51.43941,0.523862766 Z M60.9566682,1.84547319 C68.4461347,3.83647574 74.8320812,7.46288383 80.2168853,12.5583611 C76.9609306,14.6160066 73.5236506,16.3111817 69.9617859,17.663887 C67.6981606,10.9937032 64.6074388,5.55089638 60.9566682,1.84547319 Z M16.0645747,15.375934 C19.8113365,17.8105906 23.7732388,19.8181087 27.9064112,21.3671611 C26.1396494,27.7638996 25.0868912,35.0781504 24.9370712,42.9259323 L4.88186471,42.9259323 C5.33631353,32.3843762 9.48819882,22.7864319 16.0645747,15.375934 Z M31.6525712,22.6507064 C36.7756853,24.1989262 42.1136682,25.0469494 47.5555041,25.2156479 L47.5555041,42.9259517 L28.8168035,42.9259517 C28.9706612,35.6182064 29.9897594,28.7024774 31.6525712,22.6507064 Z M51.43941,42.9259517 L51.43941,25.2156479 C56.8845459,25.0468332 62.2257512,24.1979968 67.3518159,22.6481119 C69.0151129,28.7004638 70.0346771,35.6171415 70.1885347,42.9259517 L51.43941,42.9259517 L51.43941,42.9259517 Z M74.0663841,42.9259517 C73.9164476,35.0780536 72.8673582,27.7598917 71.1003635,21.363037 C75.23175,19.8137523 79.1921188,17.8060987 82.9373276,15.3720423 C89.5157224,22.7831211 93.6689082,32.3824787 94.1234541,42.9259517 L74.0663841,42.9259517 Z" id="Shape"></path>
                    </g>
                </g>
            </g>
        </g>
    </g>
</svg>