<?xml version="1.0" encoding="UTF-8"?>
<svg width="300px" height="195px" viewBox="0 0 300 195" version="1.1" xmlns="http://www.w3.org/2000/svg" xmlns:xlink="http://www.w3.org/1999/xlink">
    <title>method-one</title>
    <g id="Page-1" stroke="none" stroke-width="1" fill="none" fill-rule="evenodd">
        <g id="Desktop-HD" transform="translate(-60.000000, -3188.000000)" fill="#000000">
            <g id="method-one" transform="translate(60.000000, 3188.000000)">
                <g id="noun_web-programming_3239815" transform="translate(104.000000, 0.000000)" fill-rule="nonzero">
                    <g id="Group">
                        <path d="M58.5273637,65.5067247 C58.4498353,65.2353127 58.3528935,64.9832071 58.2558447,64.7116702 C56.8402059,63.6644922 55.5990373,62.3458129 54.6488188,60.7748675 C53.6404675,59.1459496 53.0198831,57.3618322 52.7677775,55.5389059 L52.5931824,55.655261 C51.9920114,56.0624414 51.2356586,56.0818369 50.6150743,55.7522027 C49.6067229,55.2091469 48.5594378,54.8019843 47.531691,54.4916208 C46.8335782,54.2977373 46.2905224,53.7159796 46.1547539,53.017742 L45.6118051,50.3222327 L39.9878445,50.3222327 L39.4255002,53.017742 C39.2703184,53.7159796 38.7660892,54.2977373 38.0679765,54.4916208 C37.0401047,54.7825531 35.9929267,55.2091469 34.9651798,55.7522027 C34.3251822,56.0818547 33.5688294,56.0624414 32.9870718,55.655261 L30.7181563,54.1619867 L26.7619402,58.1374912 L28.2746278,60.42582 C28.6818082,61.026991 28.7206171,61.8027571 28.3521563,62.4427547 C27.8673404,63.334751 27.4407467,64.3626227 27.0528725,65.526138 C26.8395757,66.2049624 26.2771065,66.7091916 25.5984071,66.8448351 L22.9027729,67.387891 L22.9027729,73.0118516 L25.5984071,73.5547825 C26.2965198,73.690551 26.8588641,74.2141935 27.0722859,74.8928929 C27.4019378,75.9788798 27.8092253,76.9873561 28.3715696,77.9956896 C28.7206171,78.6356873 28.6818082,79.4114355 28.2746278,79.9931931 L26.7619402,82.281522 L30.7181563,86.2570265 L32.9870718,84.7444459 C33.5688294,84.3759851 34.3057688,84.3371584 34.9263531,84.6475041 C35.9929267,85.1904351 37.059518,85.6171537 38.0873898,85.9273745 C38.7660892,86.1406714 39.2897318,86.7031227 39.4255002,87.4012533 L39.9878445,90.0968696 L45.6118051,90.0968696 L46.1547539,87.4012533 C46.2905224,86.7031406 46.8141649,86.1406714 47.4928643,85.9273745 C48.5788512,85.5977225 49.6261363,85.1710218 50.6150743,84.6475041 C51.2356586,84.2983318 51.9920114,84.3371584 52.5931824,84.7444459 L54.8815112,86.2570265 L58.8570157,82.281522 L57.3444351,79.9931931 C56.9371476,79.4114355 56.9177343,78.6550827 57.2474933,78.0150851 C57.7904243,76.9679249 58.2171251,75.9400531 58.5273637,74.8928751 C58.7406606,74.2141757 59.3031298,73.6905331 60.0012425,73.5547647 L62.6968588,73.0118337 L62.6968588,67.3878731 L60.0012425,66.8448173 C59.3031298,66.7091916 58.7406606,66.185549 58.5273637,65.5067247 Z M42.7998337,80.5156937 C37.1130475,80.5156937 32.5021488,75.8877014 32.5021488,70.2010222 C32.5021488,64.5313296 37.1130475,59.9033373 42.7998337,59.9033373 C48.48662,59.9033373 53.0974116,64.5313296 53.0974116,70.2010222 C53.0974116,75.8877014 48.48662,80.5156937 42.7998337,80.5156937 Z" id="Shape"></path>
                        <path d="M75.1851278,3.87506549 C75.1851278,2.23406784 73.8499794,0.898919412 72.2080361,0.898919412 L3.87683196,0.898919412 C2.23583431,0.898919412 0.900685882,2.23406784 0.900685882,3.87506549 L0.900685882,13.3243271 L75.1851278,13.3243271 L75.1851278,3.87506549 Z M6.76408353,9.5578549 C5.42065588,9.5578549 4.32139373,8.45861059 4.32139373,7.1151651 C4.32139373,5.77161255 5.42063804,4.67247529 6.76408353,4.67247529 C8.10763608,4.67247529 9.20677333,5.77161255 9.20677333,7.1151651 C9.20677333,8.45861059 8.10763608,9.5578549 6.76408353,9.5578549 Z M13.6118157,9.5578549 C12.268388,9.5578549 11.1691259,8.45861059 11.1691259,7.1151651 C11.1691259,5.77161255 12.2683702,4.67247529 13.6118157,4.67247529 C14.9552612,4.67247529 16.0545055,5.77161255 16.0545055,7.1151651 C16.0545055,8.45861059 14.9552433,9.5578549 13.6118157,9.5578549 Z M20.4594229,9.5578549 C19.0916037,9.5578549 18.0167331,8.45861059 18.0167331,7.1151651 C18.0167331,5.77161255 19.0916037,4.67247529 20.4594229,4.67247529 C21.8028506,4.67247529 22.9021127,5.77161255 22.9021127,7.1151651 C22.9021127,8.45861059 21.8028506,9.5578549 20.4594229,9.5578549 Z M71.0310135,8.56986255 L28.54488,8.56986255 C27.7419031,8.56986255 27.0904145,7.91839176 27.0904145,7.11539706 C27.0904145,6.3124202 27.7418853,5.66093157 28.54488,5.66093157 L71.0310135,5.66093157 C71.8339904,5.66093157 72.485479,6.31240235 72.485479,7.11539706 C72.485479,7.91839176 71.8339904,8.56986255 71.0310135,8.56986255 Z" id="Shape"></path>
                        <path d="M24.4220269,61.6235584 L22.6465633,58.9608449 C22.1342869,58.1928941 22.2346545,57.1702325 22.887071,56.5159069 L29.0931461,50.2909002 C29.7446169,49.6356288 30.768242,49.5305327 31.5399755,50.0456463 L34.1989063,51.8125808 C34.7471724,51.5597614 35.3001669,51.3343847 35.8522157,51.1355408 L36.4980124,47.9927398 C36.682671,47.0912688 37.4771188,46.4435808 38.3975214,46.4435808 L47.201932,46.4435808 C48.1261173,46.4435808 48.9215286,47.0950516 49.1033324,48.001251 L49.343501,49.1972051 L49.4906355,49.1972051 C50.014278,49.1972051 50.44039,48.7710931 50.44039,48.2474506 L50.44039,41.7895018 C50.44039,40.8747912 50.7576053,40.0329698 51.2859763,39.3691873 C50.7576053,38.7082418 50.44039,37.870221 50.44039,36.9602388 L50.44039,30.5032357 C50.44039,29.9786475 50.014278,29.5525355 49.4906355,29.5525355 L46.5230006,29.5525355 C45.7200237,29.5525355 45.0685351,28.9010647 45.0685351,28.09807 C45.0685351,27.2950753 45.7200059,26.6436045 46.5230006,26.6436045 L49.4906355,26.6436045 C51.6183582,26.6436045 53.3493031,28.3745673 53.3493031,30.5032178 L53.3493031,36.960221 C53.3493031,37.4753345 53.7848898,37.9109212 54.3000033,37.9109212 C55.1029802,37.9109212 55.7544688,38.562392 55.7544688,39.3653867 C55.7544688,40.1683814 55.102998,40.8198522 54.3000033,40.8198522 C53.7754151,40.8198522 53.3493031,41.2544931 53.3493031,41.7894839 L53.3493031,48.2474327 C53.3493031,49.7772855 52.4474931,51.0904155 51.1536516,51.7140867 C51.2324825,51.7493625 51.3135618,51.7752708 51.3920359,51.8116173 L52.9570575,50.7817292 C53.2800718,49.2599237 53.8330663,47.7724306 54.6797231,46.3933702 C55.0319645,45.8195349 55.6578839,45.4691849 56.3320869,45.4691849 C56.3330325,45.4691849 56.3339782,45.4691849 56.3349239,45.4691849 C57.0100725,45.4701306 57.635992,45.8223898 57.9882333,46.3990622 L62.7587924,54.2224571 L66.6543953,54.0093922 L68.6268114,50.6440694 L63.8553067,42.8197288 C63.5030475,42.2440022 63.4765325,41.5262441 63.7852367,40.9249482 C64.0929773,40.324598 64.6914361,39.9268924 65.3646933,39.8767175 C69.0204845,39.6022365 72.4947218,40.782328 75.1860914,43.0184657 L75.1860914,17.2028898 L0.892156863,17.2028898 L0.892156863,65.3515608 C0.892156863,66.9982504 2.23203373,68.3381273 3.87872333,68.3381273 L19.0246027,68.3381273 L19.0246027,65.79755 C19.0246027,64.8733647 19.6760735,64.0779533 20.5822729,63.8961496 L23.7373857,63.2626647 C23.9495049,62.6878837 24.1767729,62.1443639 24.4220269,61.6235584 Z M39.9826522,32.6659845 L47.9717741,37.9715343 C48.3704255,38.2366655 48.613788,38.6817269 48.6213535,39.1599051 C48.628919,39.6390469 48.3997775,40.0916737 48.0096551,40.3691167 L40.0205331,46.0506035 C39.3642447,46.5172908 38.4572424,46.3603782 37.9922502,45.707819 C37.5273116,45.0534933 37.6797633,44.1454025 38.3350347,43.6795361 L44.5998137,39.224301 L38.3728978,35.0900818 C37.704369,34.6450382 37.5216196,33.7426216 37.9657175,33.0731471 C38.4117245,32.4046361 39.3131955,32.2247237 39.9826522,32.6659845 Z M37.3047898,26.7903822 C38.0234935,27.1483155 38.3160853,28.0213624 37.958152,28.7410296 L26.7258614,51.2984129 C26.3683384,52.0147971 25.4981286,52.3099582 24.7752139,51.9517751 C24.0565102,51.5938418 23.7639006,50.7207949 24.1218518,50.0011276 L35.3541424,27.4437443 C35.7139671,26.7259863 36.5860682,26.4343402 37.3047898,26.7903822 Z M15.5617494,52.1042269 L12.5988608,52.1042269 C10.468301,52.1042269 8.73544686,50.3713727 8.73544686,48.2408129 L8.73544686,41.7800271 C8.73544686,41.2630043 8.29796882,40.8255441 7.78096392,40.8255441 C6.97798706,40.8255441 6.32649843,40.1740733 6.32649843,39.3710786 C6.32649843,38.5680839 6.97796922,37.9166131 7.78096392,37.9166131 C8.29798667,37.9166131 8.73544686,37.4791351 8.73544686,36.9621302 L8.73544686,30.5013443 C8.73544686,28.3707845 10.468301,26.6379304 12.5988608,26.6379304 L15.5494376,26.6379304 C16.3524145,26.6379304 17.0039031,27.2894012 17.0039031,28.0923959 C17.0039031,28.8953906 16.3524324,29.5468614 15.5494376,29.5468614 L12.5988608,29.5468614 C12.0638522,29.5468614 11.6443778,29.9663357 11.6443778,30.5013443 L11.6443778,36.9621302 C11.6443778,37.8721124 11.3281082,38.7101331 10.7997373,39.3710786 C11.3281082,40.0320241 11.6443778,40.8700449 11.6443778,41.7800271 L11.6443778,48.2408129 C11.6443778,48.7758216 12.06387,49.1952959 12.5988608,49.1952959 L15.5617494,49.1952959 C16.3647263,49.1952959 17.0162149,49.8467667 17.0162149,50.6497614 C17.0162149,51.4527561 16.3647263,52.1042269 15.5617494,52.1042269 Z M14.0713122,40.3691345 C13.6811898,40.0916916 13.4520304,39.6390647 13.4596137,39.1599229 C13.4671971,38.6817269 13.7105418,38.2366833 14.1091931,37.9724978 L22.0973516,32.666948 C22.7668261,32.2219045 23.6692249,32.4027625 24.1133227,33.0731649 C24.5583663,33.7426394 24.3756169,34.6450382 23.7071059,35.0900996 L17.4811535,39.2243188 L23.7449869,43.6795539 C24.4002582,44.1454382 24.55271,45.053529 24.0877714,45.7078369 C23.6220655,46.3613775 22.7146884,46.5165414 22.0594884,46.0506214 L14.0713122,40.3691345 Z" id="Shape"></path>
                        <path d="M89.5659114,84.4763706 C75.0549265,59.9566347 73.900761,60.4206098 74.9654431,58.5877449 C78.2180865,52.9828408 75.2967367,45.8647673 69.1816973,44.105648 L72.5413459,49.614788 C73.5499292,51.2650284 71.8108122,52.3541022 69.4733433,56.8700396 C68.5764937,58.3956278 67.0059229,57.6429508 61.8128027,58.158778 C59.8967353,58.2830555 59.7736176,56.2737041 56.6918937,51.7245071 C56.224118,54.1059949 56.6455016,56.6105825 57.9569722,58.7610196 C59.7789527,61.7488886 62.7334373,63.4917884 67.0170392,63.4917884 C67.6912422,63.4917884 68.3199986,63.8421563 68.6731857,64.4216657 L83.2518853,88.3284006 C84.3378722,90.1085925 86.6219543,90.6031329 88.3339676,89.5603265 C90.0781878,88.4954302 90.6304686,86.2231959 89.5659114,84.4763706 Z" id="Path"></path>
                    </g>
                </g>
                <text id="Monte-Carlo-Simulati" font-family="AvenirNext-Bold, Avenir Next" font-size="25" font-weight="bold" letter-spacing="-0.141368333">
                    <tspan x="2" y="136">Monte Carlo Simulations</tspan>
                </text>
                <text id="Used-to-assess-risk" font-family="AvenirNext-Medium, Avenir Next" font-size="18" font-weight="400" letter-spacing="-0.1017852">
                    <tspan x="11.9153484" y="163">Used to assess risk in the S&amp;P 500 </tspan>
                    <tspan x="66.7477446" y="188">Index closing prices.</tspan>
                </text>
            </g>
        </g>
    </g>
</svg>